<svg version="1.1" xmlns="http://www.w3.org/2000/svg" width="1093" height="280">
<path d="M0 0 C1.36649437 -0.00215246 2.73298691 -0.00603989 4.09947205 -0.01150513 C7.76632763 -0.02109066 11.43268652 -0.0060394 15.09948206 0.01440096 C18.95106999 0.03211879 22.80264597 0.02844426 26.65426636 0.02767944 C33.10797327 0.02954386 39.56149038 0.04680276 46.01513672 0.07421875 C53.47542942 0.10579394 60.93551564 0.1162099 68.39587033 0.11474764 C76.35715934 0.11339807 84.31836894 0.12725698 92.279634 0.14564085 C94.56973796 0.14990218 96.85982911 0.15132293 99.14993668 0.15211868 C102.7402688 0.15412493 106.33042718 0.16631266 109.92070198 0.18645096 C111.86779628 0.19508989 113.81492621 0.19395713 115.76203918 0.19256592 C116.91694351 0.20109589 118.07184784 0.20962585 119.26174927 0.21841431 C120.76982493 0.22344184 120.76982493 0.22344184 122.30836678 0.22857094 C124.81201172 0.48583984 124.81201172 0.48583984 127.81201172 2.48583984 C128.05125019 5.3419052 128.10347465 7.9745589 128.01904297 10.82568359 C127.99920097 12.091334 127.99920097 12.091334 127.97895813 13.3825531 C127.94958653 15.17529412 127.91379682 16.96793959 127.87213135 18.76043701 C127.81396972 21.39707769 127.77985304 24.03277752 127.75488281 26.66992188 C127.71226371 30.9379636 127.63901582 35.20462118 127.54956055 39.47192383 C127.51560547 41.21986509 127.48781375 42.96793486 127.46557617 44.71606445 C127.43228639 47.28693259 127.38015659 49.85679496 127.32373047 52.42724609 C127.31734055 53.21039688 127.31095062 53.99354767 127.30436707 54.8004303 C127.24438477 56.98022461 127.24438477 56.98022461 126.81201172 60.48583984 C123.68234804 62.57228229 122.97531726 62.73748886 119.41603088 62.75085449 C118.51737305 62.75912766 117.61871521 62.76740082 116.69282532 62.77592468 C115.7093663 62.77494278 114.72590729 62.77396088 113.71264648 62.77294922 C112.15617905 62.78319878 112.15617905 62.78319878 110.56826782 62.7936554 C108.3125736 62.80725702 106.0568484 62.81630153 103.80111885 62.82136536 C100.23334565 62.82963638 96.66583062 62.85012474 93.09812927 62.87390137 C85.52362825 62.92218655 77.94910156 62.95508677 70.37451172 62.98583984 C61.60231924 63.02147324 52.83025268 63.06335046 44.05817986 63.1217804 C40.53946662 63.14188389 37.02084922 63.15017583 33.50209045 63.15808105 C31.3483139 63.17105149 29.19454056 63.18457151 27.04077148 63.19873047 C25.56861931 63.19725761 25.56861931 63.19725761 24.06672668 63.195755 C23.16524902 63.20402817 22.26377136 63.21230133 21.3349762 63.2208252 C20.16276945 63.22522488 20.16276945 63.22522488 18.96688175 63.22971344 C16.51455005 63.52119594 14.90385968 64.18646043 12.81201172 65.48583984 C9.45766317 73.11490029 10.37459004 82.8945186 10.18701172 91.11083984 C10.1487332 92.51060109 10.10967615 93.91034126 10.06982422 95.31005859 C9.97625732 98.70185869 9.89051364 102.09366328 9.81201172 105.48583984 C11.68789223 105.48250893 11.68789223 105.48250893 13.60166931 105.47911072 C25.35955703 105.4588814 37.11744123 105.44386872 48.87534237 105.43402767 C54.92088989 105.42879831 60.96642342 105.4216997 67.01196289 105.41040039 C72.8409546 105.3995734 78.66993281 105.39356341 84.49893379 105.3909626 C86.72818782 105.38910801 88.95744106 105.38548676 91.18668938 105.38010979 C94.29740906 105.37290185 97.40807221 105.3718488 100.51879883 105.37231445 C101.4502774 105.36871918 102.38175598 105.3651239 103.34146118 105.36141968 C109.69795956 105.37178768 109.69795956 105.37178768 110.81201172 106.48583984 C110.91271075 108.34953188 110.94283247 110.21708662 110.94482422 112.08349609 C110.94675781 113.2672583 110.94869141 114.45102051 110.95068359 115.6706543 C110.94617188 116.95029053 110.94166016 118.22992676 110.93701172 119.54833984 C110.93507813 120.84408936 110.93314453 122.13983887 110.93115234 123.47485352 C110.8782685 135.49491144 110.4112636 147.48210416 109.81201172 159.48583984 C88.09904174 160.35537561 66.42626886 160.61862623 44.69763184 160.55450439 C40.74032155 160.54400341 36.78300399 160.53965144 32.82568359 160.53466797 C25.15444107 160.52415838 17.48323243 160.50725115 9.81201172 160.48583984 C9.8813086 166.42699475 9.96947594 172.36747386 10.07446289 178.30810547 C10.10753399 180.32528124 10.13562024 182.34254558 10.15844727 184.35986328 C10.19232316 187.27463212 10.24465272 190.1886021 10.30029297 193.10302734 C10.30668289 193.991987 10.31307281 194.88094666 10.31965637 195.79684448 C10.46055851 201.91961758 11.22025238 207.8700003 13.81201172 213.48583984 C16.97164578 215.59226255 17.73194689 215.73865465 21.34207153 215.75758362 C22.7344252 215.7721611 22.7344252 215.7721611 24.15490723 215.78703308 C25.67924377 215.78791679 25.67924377 215.78791679 27.234375 215.78881836 C28.30609955 215.79725769 29.3778241 215.80569702 30.48202515 215.81439209 C34.03212919 215.8402285 37.58215009 215.85232242 41.13232422 215.86474609 C43.59187486 215.88091207 46.05141904 215.8980911 48.51095581 215.91624451 C54.9911196 215.96199154 61.47129187 215.99676924 67.95153809 216.02844238 C78.33240604 216.08026882 88.71317931 216.14526648 99.09392929 216.21665764 C102.73075264 216.23957863 106.36756379 216.25579214 110.00442505 216.27137756 C112.21909724 216.28477788 114.43376816 216.29839212 116.6484375 216.31225586 C117.66871033 216.31486923 118.68898315 216.3174826 119.74017334 216.32017517 C120.66276947 216.32707367 121.5853656 216.33397217 122.53591919 216.34107971 C123.34227877 216.34493463 124.14863834 216.34878954 124.97943306 216.35276127 C126.81201172 216.48583984 126.81201172 216.48583984 127.81201172 217.48583984 C128.00450421 219.22164123 128.13174526 220.96472828 128.23266602 222.70825195 C128.29910812 223.82288315 128.36555023 224.93751434 128.43400574 226.08592224 C128.5007399 227.29941849 128.56747406 228.51291473 128.63623047 229.76318359 C128.706147 231.00000381 128.77606354 232.23682404 128.84809875 233.51112366 C128.99430243 236.13304425 129.13826435 238.75499015 129.27905273 241.37719727 C129.4243689 244.07328454 129.5768603 246.76880996 129.73608398 249.46411133 C129.96325844 253.33413114 130.17655084 257.20468104 130.38623047 261.07568359 C130.45903732 262.28715561 130.53184418 263.49862762 130.6068573 264.74681091 C130.66384293 265.86459427 130.72082855 266.98237762 130.77954102 268.1340332 C130.83426071 269.12140976 130.88898041 270.10878632 130.94535828 271.12608337 C130.81201172 273.48583984 130.81201172 273.48583984 128.81201172 275.48583984 C113.66675778 279.53007431 95.81451322 277.69952771 80.30810547 277.75927734 C79.00656084 277.76460102 77.70501621 277.7699247 76.36403084 277.7754097 C70.89128664 277.79694186 65.41854481 277.8156745 59.94576931 277.82703209 C52.18009349 277.84327568 44.41491677 277.87657482 36.64942878 277.93343294 C31.14148674 277.97235531 25.63367713 277.99168964 20.12560135 277.99695265 C16.85601658 278.00056974 13.58708701 278.01479396 10.31762505 278.04505539 C-15.73031747 278.27259647 -15.73031747 278.27259647 -28.18798828 272.48583984 C-29.50392723 271.88490005 -29.50392723 271.88490005 -30.84645081 271.27182007 C-32.65542822 270.39990552 -34.4291807 269.45497872 -36.18798828 268.48583984 C-36.18798828 267.82583984 -36.18798828 267.16583984 -36.18798828 266.48583984 C-36.75646484 266.24865234 -37.32494141 266.01146484 -37.91064453 265.76708984 C-46.19807876 261.10451964 -52.13727228 251.46700071 -54.76171875 242.53271484 C-58.31608093 229.3830745 -59.33858888 216.82460062 -59.33325195 203.21411133 C-59.33624887 201.68211282 -59.33965261 200.15011507 -59.34342957 198.61811829 C-59.35222218 194.47720906 -59.35460575 190.33632053 -59.35524535 186.19540286 C-59.35595885 183.6003344 -59.35809887 181.00527111 -59.36074257 178.41020393 C-59.36998217 169.33376866 -59.37407942 160.25734802 -59.37329102 151.1809082 C-59.37269144 142.75872389 -59.38322318 134.33660387 -59.39903468 125.9144358 C-59.4121733 118.65376407 -59.41747224 111.39311317 -59.41683561 104.13242966 C-59.41658236 99.80939314 -59.41933644 95.48641375 -59.43001366 91.16338921 C-59.43980106 87.08967418 -59.43970216 83.01606965 -59.43249702 78.94235039 C-59.43146407 77.46067134 -59.4337357 75.97898503 -59.43985748 74.49731827 C-59.52900629 51.39401468 -57.01779043 29.59154039 -40.18798828 12.48583984 C-29.29890456 2.41343741 -14.3100563 -0.12883986 0 0 Z " fill="#FEFEFE" transform="translate(470.18798828125,1.51416015625)"/>
<path d="M0 0 C0.98111 -0.00021904 0.98111 -0.00021904 1.98204041 -0.0004425 C4.13552207 0.00025198 6.28891633 0.00802256 8.44238281 0.01586914 C9.93882195 0.01773497 11.4352617 0.0191581 12.93170166 0.02015686 C16.86409196 0.02396904 20.79644514 0.03378822 24.7288208 0.04486084 C28.74401345 0.0551029 32.75921211 0.05966047 36.77441406 0.06469727 C44.64812899 0.07541167 52.52181378 0.09247248 60.39550781 0.11352539 C62.14495148 4.03787216 63.70831486 7.6906043 64.57128906 11.91430664 C64.75651123 12.79650879 64.9417334 13.67871094 65.13256836 14.58764648 C65.41741089 15.99264404 65.41741089 15.99264404 65.70800781 17.42602539 C66.13607986 19.46672951 66.56583623 21.50708087 66.99707031 23.54711914 C67.22168945 24.6130127 67.44630859 25.67890625 67.67773438 26.77709961 C68.91515811 32.52901552 70.24971709 38.25820333 71.58300781 43.98852539 C74.38284819 56.02666525 74.38284819 56.02666525 75.35644531 60.45336914 C77.06778569 68.20725235 78.92146627 75.92942421 80.74121094 83.65844727 C83.32113524 94.66649739 85.76822201 105.69608701 87.89550781 116.80102539 C88.94945108 122.13144001 90.21795201 127.33197561 91.70800781 132.55493164 C92.62233946 135.9577 93.27343051 139.39182505 93.93066406 142.85180664 C94.3255481 144.77313318 94.84760671 146.66761533 95.39550781 148.55102539 C96.22697971 151.51314402 96.81536866 154.33897263 97.33300781 157.36352539 C97.99667638 161.18876469 98.83392654 164.8793199 99.89550781 168.61352539 C100.87172575 172.06411751 101.67926365 175.45221597 102.27050781 178.98852539 C103.69450227 187.30513168 105.80850598 195.47742582 107.80810547 203.67016602 C108.31977497 205.79850697 108.80851376 207.92961701 109.28222656 210.06665039 C109.52585937 211.13399414 109.76949219 212.20133789 110.02050781 213.30102539 C110.21902344 214.20208008 110.41753906 215.10313477 110.62207031 216.03149414 C111.2967643 218.47150194 111.2967643 218.47150194 114.39550781 220.11352539 C117.43746208 220.4469301 117.43746208 220.4469301 120.39550781 220.11352539 C123.18171825 217.32731495 123.54970131 214.14741106 124.41894531 210.42211914 C124.60639313 209.64401382 124.79384094 208.86590851 124.98696899 208.06422424 C125.58819161 205.5613758 126.17944555 203.05629052 126.77050781 200.55102539 C127.16048567 198.92131311 127.55110423 197.291754 127.94238281 195.66235352 C128.91250242 191.61423237 129.87262162 187.5638238 130.82867432 183.51235962 C131.39260412 181.12581381 131.95988795 178.74008553 132.52783203 176.35449219 C132.88485976 174.84971309 133.24179739 173.3449126 133.59863281 171.84008789 C133.8407399 170.82530617 133.8407399 170.82530617 134.08773804 169.7900238 C135.08698509 165.561064 135.9631773 161.32052504 136.77050781 157.05102539 C138.28786249 149.24748705 140.24842395 141.57074374 142.20361328 133.86694336 C143.79008143 127.59699247 145.2474412 121.32377749 146.55175781 114.98852539 C147.74063934 109.52847689 149.07548205 104.10563302 150.39550781 98.67602539 C152.31909564 90.74930609 154.09769954 82.83811727 155.63769531 74.82836914 C156.52046535 70.5009758 157.5419349 66.21757323 158.58300781 61.92602539 C161.57808961 49.5688102 164.30060247 37.15186455 167.03819275 24.735672 C167.36188751 23.27222823 167.68726422 21.80915536 168.01441956 20.34648132 C168.77232276 16.95770633 169.51173639 13.56812531 170.19921875 10.16430664 C170.44704102 8.98223633 170.69486328 7.80016602 170.95019531 6.58227539 C171.1588623 5.54522461 171.3675293 4.50817383 171.58251953 3.43969727 C171.98494873 2.28824219 171.98494873 2.28824219 172.39550781 1.11352539 C175.78792438 -0.01728013 178.3696127 -0.01348837 181.9465332 -0.01586914 C182.6070015 -0.01762146 183.26746979 -0.01937378 183.94795227 -0.0211792 C186.12971631 -0.0255783 188.31139921 -0.0226669 190.49316406 -0.01928711 C192.00866206 -0.01996063 193.52415996 -0.02093105 195.03965759 -0.02218628 C198.21468129 -0.02366055 201.38967684 -0.02151707 204.56469727 -0.0168457 C208.63928239 -0.01114371 212.71380172 -0.0144321 216.78838444 -0.02041817 C219.91699217 -0.02402692 223.04558423 -0.02288383 226.17419243 -0.02029037 C227.67693527 -0.01962223 229.17967953 -0.02044562 230.68242073 -0.02276993 C232.77961133 -0.02530212 234.87669439 -0.02144808 236.97387695 -0.01586914 C238.76566124 -0.01467575 238.76566124 -0.01467575 240.59364319 -0.01345825 C243.39550781 0.11352539 243.39550781 0.11352539 245.39550781 1.11352539 C244.15066904 8.89519749 242.30607155 16.32696287 240.02050781 23.86352539 C239.38514075 25.99987204 238.75101996 28.13658975 238.11816406 30.27368164 C237.81668457 31.28962402 237.51520508 32.30556641 237.20458984 33.35229492 C235.90030657 37.80354531 234.72505022 42.28328436 233.54785156 46.76977539 C229.03476828 63.88982842 224.24267308 80.93071431 219.07910156 97.86547852 C216.1831773 107.38893232 213.32967442 116.89931296 211.07128906 126.59790039 C210.37017369 129.20783278 209.40041661 131.60716463 208.39550781 134.11352539 C207.94810098 135.77220439 207.53398976 137.4400647 207.14550781 139.11352539 C205.52037581 145.79462363 203.6308746 152.38756994 201.72631836 158.99291992 C200.30302179 163.93231365 198.90293469 168.87614104 197.54711914 173.83447266 C195.44167356 181.53291707 193.17860335 189.17226103 190.83300781 196.80102539 C188.59358685 204.08920434 186.47947532 211.38318899 184.55566406 218.76196289 C182.90928807 225.00363295 181.14990729 231.21404771 179.39550781 237.42602539 C179.06301025 238.61929443 178.7305127 239.81256348 178.38793945 241.04199219 C171.02899816 266.97479268 171.02899816 266.97479268 159.39550781 274.11352539 C150.8910618 278.1319628 143.16244864 278.69047 133.85644531 278.60961914 C132.48125126 278.6097746 131.10605678 278.61127125 129.73086548 278.61402893 C126.86822815 278.61540308 124.00609786 278.60301946 121.14355469 278.58007812 C117.49787708 278.55164166 113.85303647 278.55445842 110.20729637 278.56716824 C107.37430831 278.57416317 104.54150954 278.5662939 101.70854568 278.55391121 C99.71849897 278.54728416 97.72842546 278.55151103 95.7383728 278.55601501 C88.71454101 278.48329456 82.8746808 277.87164113 76.39550781 275.11352539 C75.34363281 274.72165039 74.29175781 274.32977539 73.20800781 273.92602539 C60.60772795 265.80584503 56.65968029 246.60865067 53.02050781 233.17602539 C50.57912049 224.29939829 48.04913044 215.46021887 45.34912109 206.65869141 C44.07872039 202.49469984 42.92080597 198.32854615 41.8894043 194.09912109 C41.02550305 190.62600746 40.04922581 187.18430562 39.08300781 183.73852539 C38.63759168 182.14480435 38.19228214 180.55105352 37.74707031 178.95727539 C37.4091748 177.7487793 37.4091748 177.7487793 37.06445312 176.51586914 C36.42709982 174.2269799 35.79659152 171.93634312 35.16894531 169.64477539 C33.03513671 161.87112263 30.81077925 154.13636744 28.45800781 146.42602539 C25.99037683 138.32102515 23.81418291 130.16275291 21.71386719 121.95581055 C19.92822251 115.02893954 17.98788752 108.16003623 15.95800781 101.30102539 C13.09327297 91.62101958 10.4183467 81.89995456 7.81640625 72.14624023 C6.03996855 65.49015654 4.20228694 58.8596588 2.28613281 52.24243164 C0.9499139 47.54808363 -0.2870031 42.82826758 -1.53417969 38.10961914 C-2.70589996 33.70408331 -3.93773221 29.31577988 -5.16699219 24.92602539 C-10.60449219 5.43509336 -10.60449219 5.43509336 -10.60449219 1.11352539 C-7.03649449 0.0054978 -3.72255043 -0.00699728 0 0 Z " fill="#FEFEFE" transform="translate(625.6044921875,0.886474609375)"/>
<path d="M0 0 C1.22921173 -0.0021904 2.45842346 -0.0043808 3.72488403 -0.00663757 C7.05757212 -0.00853698 10.3892407 0.00719159 13.7217772 0.03146338 C17.22715258 0.05295341 20.73253004 0.05217237 24.23796082 0.05415344 C30.11593245 0.06057349 35.99369389 0.08171997 41.87158203 0.11328125 C49.40145875 0.15366135 56.93119925 0.17098949 64.46117115 0.18059063 C70.96181097 0.18890788 77.4624224 0.20612814 83.96303725 0.22562814 C85.35235822 0.22966787 86.74168009 0.23340883 88.13100266 0.2368505 C92.69676282 0.24818356 97.26241252 0.26838585 101.828125 0.29296875 C103.54341148 0.29700211 103.54341148 0.29700211 105.29335022 0.30111694 C110.66266127 0.33733133 115.80130512 0.52391958 121.09057617 1.4699707 C122.15102598 4.65132013 122.15175591 6.69562855 122.03637695 10.02709961 C121.98104294 11.73369247 121.98104294 11.73369247 121.92459106 13.47476196 C121.87881927 14.70294647 121.83304749 15.93113098 121.78588867 17.1965332 C121.72073563 19.08437027 121.72073563 19.08437027 121.65426636 21.01034546 C121.56101819 23.67182864 121.46557109 26.33312448 121.36645508 28.99438477 C121.23944575 32.41191437 121.12171221 35.82968843 121.00682259 39.24764442 C120.89628868 42.50161239 120.7783066 45.75530746 120.66088867 49.0090332 C120.61916534 50.24126617 120.57744202 51.47349915 120.53445435 52.74307251 C120.46966385 54.44020889 120.46966385 54.44020889 120.40356445 56.17163086 C120.36723907 57.17296051 120.3309137 58.17429016 120.29348755 59.20596313 C120.09057617 61.4699707 120.09057617 61.4699707 119.09057617 62.4699707 C117.73763941 62.57734216 116.37922198 62.61675708 115.02207947 62.62818909 C113.70740944 62.64287231 113.70740944 62.64287231 112.36618042 62.65785217 C111.39729889 62.66360764 110.42841736 62.6693631 109.43017578 62.67529297 C108.41565842 62.68519257 107.40114105 62.69509216 106.35588074 62.70529175 C102.98491796 62.73701198 99.61394107 62.76170561 96.24291992 62.78637695 C93.91263959 62.8069374 91.58236307 62.82793362 89.25209045 62.84934998 C83.1052457 62.90466456 76.95836678 62.9540323 70.8114624 63.00219727 C64.54444318 63.05234393 58.27747386 63.10806559 52.01049805 63.16333008 C39.70390001 63.27102639 27.39725872 63.37244571 15.09057617 63.4699707 C13.61112255 69.25562934 12.8040698 74.60101217 12.89526367 80.56762695 C12.89950851 81.64722939 12.89950851 81.64722939 12.90383911 82.74864197 C12.914886 85.01009952 12.93995883 87.27113626 12.96557617 89.5324707 C12.97562609 91.08129304 12.98474838 92.63012169 12.99291992 94.17895508 C13.0147741 97.94278499 13.04919274 101.70630693 13.09057617 105.4699707 C14.21588242 105.46775009 15.34118866 105.46552948 16.50059509 105.46324158 C27.08119057 105.44301126 37.66178215 105.4279991 48.24239254 105.41815853 C53.68259929 105.41292942 59.12279049 105.40583127 64.56298828 105.39453125 C69.80843319 105.38370336 75.0538631 105.37769408 80.29931831 105.37509346 C82.30528563 105.37323903 84.31125209 105.36961809 86.31721306 105.36424065 C89.11660442 105.35703151 91.91593296 105.35597971 94.71533203 105.35644531 C95.55330322 105.35285004 96.39127441 105.34925476 97.25463867 105.34555054 C102.97652401 105.35591854 102.97652401 105.35591854 104.09057617 106.4699707 C104.19132375 108.41839092 104.22139754 110.37051104 104.22338867 112.3215332 C104.22532227 113.55564941 104.22725586 114.78976563 104.22924805 116.0612793 C104.2251361 117.40584453 104.2205696 118.75040845 104.21557617 120.0949707 C104.21424683 121.10107391 104.21424683 121.10107391 104.21289062 122.12750244 C104.19353553 134.59329739 103.77531149 147.02246072 103.09057617 159.4699707 C82.2839343 160.29734132 61.47216451 160.69214915 40.65307617 161.0324707 C39.97410152 161.0435725 39.29512688 161.0546743 38.59557724 161.06611252 C30.09397292 161.20474788 21.59230573 161.33923971 13.09057617 161.4699707 C13.04083921 167.14419299 13.00469797 172.81828609 12.98071289 178.49267578 C12.97070531 180.41978163 12.95709507 182.34687248 12.93969727 184.27392578 C12.91521697 187.05675983 12.90404039 189.83939171 12.89526367 192.62231445 C12.8849411 193.47268784 12.87461853 194.32306122 12.86398315 195.19920349 C12.86280403 201.60110213 12.94265436 208.22676995 16.56880188 213.70198059 C20.44242683 216.41773935 24.05655177 215.98072106 28.67675781 215.89233398 C29.6478801 215.88970551 30.61900238 215.88707703 31.61955261 215.8843689 C34.83034191 215.87138373 38.04017916 215.83052228 41.25073242 215.7902832 C43.47984281 215.7777435 45.70896566 215.76726295 47.93809509 215.75875854 C53.80779411 215.73214077 59.67707768 215.6832673 65.54656982 215.62805176 C74.94541734 215.54183985 84.34437835 215.48244144 93.74349785 215.43597031 C97.03138895 215.41548164 100.3189447 215.38138671 103.60670471 215.34597778 C105.61572976 215.33232499 107.62475783 215.31910745 109.63378906 215.30639648 C110.55179291 215.29292175 111.46979675 215.27944702 112.4156189 215.26556396 C113.25537766 215.26253265 114.09513641 215.25950134 114.96034241 215.25637817 C115.68981614 215.24933931 116.41928988 215.24230045 117.17086887 215.23504829 C119.09057617 215.4699707 119.09057617 215.4699707 122.09057617 217.4699707 C122.58032227 220.45117188 122.58032227 220.45117188 122.73901367 224.32543945 C122.78715714 225.3809626 122.78715714 225.3809626 122.83627319 226.45780945 C122.93737079 228.79486109 123.01539032 231.13195034 123.09057617 233.4699707 C123.15068583 235.11011152 123.21090887 236.75024818 123.27124023 238.39038086 C123.41992283 242.65135985 123.5401776 246.91261558 123.64819336 251.17480469 C123.71667068 253.82482737 123.79412753 256.47450098 123.87182617 259.12426758 C123.91663692 260.81891485 123.96092796 262.51357595 124.00463867 264.20825195 C124.04048569 265.38935295 124.04048569 265.38935295 124.07705688 266.59431458 C124.15230955 269.84619567 124.1279107 272.35796713 123.09057617 275.4699707 C105.70871957 277.03557045 88.46524375 277.80625362 71.01635742 277.84106445 C68.62322446 277.85006996 66.23009194 277.85919222 63.83695984 277.86842346 C58.87664437 277.88471768 53.91639492 277.89257963 48.95605469 277.89550781 C42.63779728 277.90093174 36.32016686 277.93886112 30.00208759 277.98425198 C25.08182023 278.01411551 20.16170407 278.02123309 15.24135399 278.02223396 C12.91200006 278.02640243 10.58264424 278.03869852 8.25338173 278.05975151 C-7.68005042 278.19257738 -24.39352334 278.03615517 -36.90942383 266.4699707 C-36.90942383 265.8099707 -36.90942383 265.1499707 -36.90942383 264.4699707 C-38.22942383 263.8099707 -39.54942383 263.1499707 -40.90942383 262.4699707 C-40.90942383 261.8099707 -40.90942383 261.1499707 -40.90942383 260.4699707 C-41.51786133 260.21860352 -42.12629883 259.96723633 -42.75317383 259.70825195 C-49.22317968 255.992687 -51.13184529 246.23159702 -53.11254883 239.58325195 C-54.51914471 234.0878749 -55.03554456 228.94702017 -55.0431366 223.27490234 C-55.04540215 222.57319916 -55.04766771 221.87149597 -55.05000192 221.14852905 C-55.05630633 218.80904471 -55.05551483 216.46961883 -55.0546875 214.13012695 C-55.05768136 212.44754461 -55.06108441 210.76496296 -55.06486511 209.0823822 C-55.07368981 204.51788979 -55.07604268 199.95341613 -55.0766809 195.38891602 C-55.07739268 192.53206183 -55.07952951 189.67521238 -55.08217812 186.81835938 C-55.091429 176.8365041 -55.09551364 166.85466216 -55.09472656 156.87280273 C-55.09412699 147.59461159 -55.1046557 138.31647881 -55.12047023 129.03830242 C-55.13358997 121.05416181 -55.13890855 113.07004016 -55.13827115 105.08588886 C-55.13801731 100.32580323 -55.14080473 95.5657694 -55.1514492 90.80569458 C-55.16120413 86.32082003 -55.16115922 81.83604599 -55.15393257 77.35116768 C-55.1528956 75.71545831 -55.15519608 74.07974245 -55.16129303 72.44404411 C-55.23719621 50.64845165 -52.88229605 29.28979758 -37.35473633 12.76293945 C-26.94128608 2.99825048 -13.92398334 -0.15737299 0 0 Z " fill="#FEFEFE" transform="translate(56.909423828125,1.530029296875)"/>
<path d="M0 0 C1.44913769 -0.00321951 2.89827507 -0.00658409 4.34741211 -0.01008606 C7.3732173 -0.01604717 10.39899405 -0.01792896 13.42480469 -0.01733398 C17.28459613 -0.01723226 21.14420408 -0.03090907 25.00395203 -0.04810619 C27.992969 -0.05926958 30.9819421 -0.0612519 33.97097778 -0.06072426 C35.39340856 -0.06189689 36.81584074 -0.06627797 38.23825073 -0.07405663 C55.06270584 -0.15749297 55.06270584 -0.15749297 61.75 3.73046875 C68.50005053 10.84538687 70.9069355 20.22493385 73.625 29.41796875 C73.99818359 30.65160156 74.37136719 31.88523437 74.75585938 33.15625 C75.4993654 35.61563862 76.23860505 38.07632142 76.97338867 40.53833008 C78.36487807 45.17569231 79.79949341 49.79921302 81.23974609 54.42163086 C81.94196973 56.76564087 82.56206073 59.10019593 83.125 61.48046875 C83.98200514 64.85135562 85.07777239 67.92813784 86.33984375 71.15625 C87.07628315 73.20633807 87.62028461 75.23725377 88.125 77.35546875 C88.92664153 80.9962057 88.92664153 80.9962057 90.0625 83.66796875 C91.14878028 86.38366946 91.80019128 89.12562321 92.49609375 91.96142578 C93.39542652 95.46494717 94.47352292 98.90704133 95.5625 102.35546875 C95.77519531 103.04060547 95.98789063 103.72574219 96.20703125 104.43164062 C97.08087021 107.21666726 97.97578025 109.9587245 99.09375 112.65625 C100.10177502 115.26979875 100.73860743 117.89126328 101.39257812 120.61083984 C102.78256979 125.91651503 104.49537738 131.13187422 106.1444397 136.36175537 C106.82268983 138.51278518 107.49795539 140.66473373 108.17260742 142.81689453 C110.06082938 148.83549869 111.95710935 154.85139498 113.87890625 160.859375 C114.37780282 162.42050945 114.87651536 163.98170272 115.375 165.54296875 C115.60783691 166.27161133 115.84067383 167.00025391 116.08056641 167.75097656 C117.99053189 173.79440857 119.65400593 179.89605005 121.30322266 186.01489258 C122.60160967 190.74866136 124.11924522 195.26205513 126.16796875 199.734375 C126.98172196 201.94821015 127.48403676 204.00552826 127.96484375 206.30859375 C129.06376239 211.47027769 130.71600975 216.3729591 132.4375 221.35546875 C133.06290764 223.21296689 133.68660474 225.07104183 134.30859375 226.9296875 C134.60878418 227.82606934 134.90897461 228.72245117 135.21826172 229.64599609 C135.49686035 230.47824707 135.77545898 231.31049805 136.0625 232.16796875 C136.41658936 233.21718506 136.41658936 233.21718506 136.77783203 234.28759766 C140.14626285 244.40849676 142.55395672 254.56853592 137.9375 264.66796875 C133.77805814 271.84823431 127.76884235 275.56238995 120.0625 278.16796875 C116.63129006 278.70478667 113.27323072 278.75361755 109.8046875 278.734375 C108.85739777 278.74057358 107.91010803 278.74677216 106.93411255 278.75315857 C104.9458315 278.76021706 102.95749086 278.75715277 100.96923828 278.74438477 C97.93802074 278.73047114 94.90986623 278.7647063 91.87890625 278.80273438 C89.93749925 278.80368531 87.99608841 278.80182813 86.0546875 278.796875 C85.1566037 278.81013321 84.2585199 278.82339142 83.33322144 278.83705139 C77.30577866 278.74831711 73.3805728 277.49081682 69.0625 273.16796875 C64.67876661 266.5297439 63.29838599 258.81139321 61.52392578 251.15576172 C60.85133896 248.25830038 60.14799036 245.36884412 59.4375 242.48046875 C59.10878906 241.11341797 59.10878906 241.11341797 58.7734375 239.71875 C58.10536317 237.14256661 58.10536317 237.14256661 57.0546875 234.65234375 C56.05280893 232.14370291 55.4169661 229.73644618 54.8125 227.10546875 C53.42841276 221.39257806 51.77540518 215.78838984 50.0625 210.16796875 C47.84970676 202.87426954 45.81535818 195.58724472 44.0625 188.16796875 C43.63383546 186.4398501 43.20403778 184.71201233 42.7734375 182.984375 C42.30689895 181.08733612 41.84075621 179.19019986 41.375 177.29296875 C41.03456665 175.93570679 41.03456665 175.93570679 40.68725586 174.55102539 C39.58883993 170.02042833 38.66196208 165.86862129 39.0625 161.16796875 C40.0625 160.16796875 40.0625 160.16796875 43.29711914 160.05444336 C44.73064126 160.05460244 46.16416912 160.06029468 47.59765625 160.0703125 C48.72753212 160.07243492 48.72753212 160.07243492 49.88023376 160.07460022 C52.2951956 160.08021499 54.71006601 160.09276992 57.125 160.10546875 C58.75846221 160.11048185 60.39192586 160.11504509 62.02539062 160.11914062 C66.03779585 160.13018921 70.05013241 160.14746369 74.0625 160.16796875 C74.0625 158.84796875 74.0625 157.52796875 74.0625 156.16796875 C73.4025 156.16796875 72.7425 156.16796875 72.0625 156.16796875 C65.54313781 144.64632866 65.54313781 144.64632866 64.0625 139.16796875 C63.4025 139.16796875 62.7425 139.16796875 62.0625 139.16796875 C60.72411267 136.712267 59.39163768 134.25366959 58.0625 131.79296875 C57.6809375 131.09429687 57.299375 130.395625 56.90625 129.67578125 C54.0625 124.39453125 54.0625 124.39453125 54.0625 122.16796875 C53.4025 122.16796875 52.7425 122.16796875 52.0625 122.16796875 C51.7221875 121.45253906 51.381875 120.73710938 51.03125 120 C47.69499759 113.14116193 43.99379201 106.65842944 39.94140625 100.19921875 C37.9346823 96.96175974 36.08452115 93.66703245 34.26171875 90.32421875 C32.50355892 87.1629672 30.61625576 84.08332384 28.73828125 80.9921875 C27.47448324 78.86229016 26.24735732 76.72563406 25.04296875 74.5625 C24.69403564 73.93883545 24.34510254 73.3151709 23.9855957 72.67260742 C23.30275374 71.44800917 22.62522603 70.22042772 21.95385742 68.98950195 C20.02382228 65.53758585 18.00026121 62.81848219 15.0625 60.16796875 C14.08645091 62.11361372 13.11466905 64.06057021 12.16357422 66.01855469 C9.74031783 70.97293897 7.03300495 75.69619875 4.1875 80.41796875 C1.25057213 85.34104362 -1.56282111 90.25379698 -4.0625 95.41796875 C-6.69237984 100.84859634 -9.78637102 105.89654083 -12.9921875 111.00390625 C-15.3115994 114.77644368 -17.41196453 118.63925027 -19.5 122.54296875 C-20.95191074 125.19428402 -22.48891075 127.77478238 -24.0625 130.35546875 C-26.59937784 134.5279652 -28.81947224 138.76898802 -30.9375 143.16796875 C-31.5975 143.16796875 -32.2575 143.16796875 -32.9375 143.16796875 C-33.02 143.84859375 -33.1025 144.52921875 -33.1875 145.23046875 C-33.99240139 148.3829992 -35.22720723 150.66395062 -36.90234375 153.421875 C-38.00699385 155.28519045 -38.96876925 157.23050725 -39.9375 159.16796875 C-23.6025 159.66296875 -23.6025 159.66296875 -6.9375 160.16796875 C-5.69111534 163.90712273 -6.31675804 165.74573854 -7.1953125 169.57421875 C-7.33860992 170.20700745 -7.48190735 170.83979614 -7.62954712 171.49176025 C-8.09891974 173.55249572 -8.5802487 175.61021233 -9.0625 177.66796875 C-9.38866649 179.08358513 -9.71451176 180.49927556 -10.04003906 181.91503906 C-12.46261064 192.39026748 -15.08417256 202.80194771 -17.9375 213.16796875 C-18.18886719 214.10898438 -18.44023438 215.05 -18.69921875 216.01953125 C-19.85611245 220.33949268 -21.07143638 224.64106383 -22.3125 228.9375 C-22.83351946 230.7434359 -23.35434661 232.54942728 -23.875 234.35546875 C-24.26909058 235.72106934 -24.26909058 235.72106934 -24.67114258 237.11425781 C-26.25560449 242.64879951 -27.71643174 248.19615864 -29.0625 253.79296875 C-33.60500931 272.168634 -33.60500931 272.168634 -39.9375 277.16796875 C-42.18625762 278.29234756 -43.44173156 278.31114523 -45.93725586 278.3449707 C-46.76249252 278.35780594 -47.58772919 278.37064117 -48.43797302 278.38386536 C-49.33371536 278.39125229 -50.2294577 278.39863922 -51.15234375 278.40625 C-52.07785538 278.41432175 -53.003367 278.42239349 -53.95692444 278.43070984 C-55.92316817 278.44456237 -57.88943606 278.45527928 -59.85571289 278.46313477 C-62.8320251 278.48022203 -65.80718961 278.52408156 -68.78320312 278.56835938 C-89.97229639 278.74552216 -89.97229639 278.74552216 -98.69140625 272.0546875 C-105.48512848 263.79363866 -106.76407449 256.74287412 -105.9375 246.16796875 C-103.51764687 231.73018958 -97.72004625 217.46169063 -93.078125 203.609375 C-90.65650626 196.30305269 -88.44596819 188.9404084 -86.30859375 181.546875 C-83.41481219 171.53749693 -80.48418294 161.58281819 -77.11328125 151.72265625 C-75.81290527 147.791287 -74.64594684 143.83391003 -73.5 139.85546875 C-71.80954134 133.98913113 -69.97043479 128.19608397 -68 122.41796875 C-65.41236628 114.82328051 -63.15668782 107.15871719 -61.02954102 99.42285156 C-59.95797712 95.5626711 -58.83794416 91.78666309 -57.38671875 88.05078125 C-56.13725012 84.82999135 -55.25048937 81.6297349 -54.45605469 78.27099609 C-53.47641288 74.29800432 -52.25096843 70.39502433 -51.0625 66.48046875 C-50.79566406 65.59762207 -50.52882813 64.71477539 -50.25390625 63.80517578 C-49.72263573 62.04935237 -49.19043746 60.29380935 -48.65722656 58.53857422 C-48.05746585 56.56310727 -47.4618123 54.58639395 -46.8671875 52.609375 C-44.75534733 45.64385175 -42.48104602 38.7395352 -40.15283203 31.84399414 C-38.60699017 27.24812885 -37.17311179 22.63547524 -35.8125 17.98046875 C-33.65852774 10.9998403 -31.70414393 5.64897891 -25.109375 1.89453125 C-17.17268666 -0.76054794 -8.25037796 0.00432642 0 0 Z " fill="#A7E858" transform="translate(950.9375,0.83203125)"/>
<path d="M0 0 C0.68158173 -0.00175232 1.36316345 -0.00350464 2.06539917 -0.00531006 C4.31690012 -0.00970938 6.56832248 -0.006798 8.81982422 -0.00341797 C10.38255834 -0.0040914 11.94529236 -0.00506176 13.50802612 -0.00631714 C16.78140257 -0.00779138 20.05475172 -0.00564775 23.328125 -0.00097656 C27.5328443 0.00473 31.7374999 0.00143414 35.94221687 -0.00454903 C39.16771936 -0.00815399 42.39320663 -0.00701652 45.61870956 -0.00442123 C47.1697274 -0.00375227 48.7207466 -0.00457932 50.27176285 -0.00690079 C52.43381697 -0.00942727 54.59576623 -0.00558726 56.7578125 0 C58.60622238 0.00119339 58.60622238 0.00119339 60.49197388 0.00241089 C63.24951172 0.12939453 63.24951172 0.12939453 64.24951172 1.12939453 C64.35306057 3.74379273 64.39109659 6.33209048 64.38754272 8.94717407 C64.390364 9.77613422 64.39318528 10.60509436 64.39609206 11.45917451 C64.40447761 14.25892508 64.40577969 17.05863631 64.40722656 19.85839844 C64.41189198 21.85701612 64.41703509 23.85563273 64.42262268 25.85424805 C64.43392661 30.16987636 64.44234977 34.48549768 64.44874191 38.80113602 C64.45939831 45.62496787 64.47963768 52.44874972 64.50186157 59.27255249 C64.56386242 78.68102728 64.61778536 98.08949973 64.65087891 117.49804688 C64.66922158 128.20832017 64.69815563 138.91851035 64.73888361 149.62872255 C64.75996435 155.29912994 64.77541236 160.96943249 64.77769089 166.63988113 C64.7798377 171.97669546 64.79571074 177.31329175 64.82208061 182.65003967 C64.82927452 184.60795769 64.83137414 186.56590213 64.82797813 188.52383041 C64.82407912 191.19938237 64.83855207 193.87423945 64.85751343 196.54971313 C64.85198373 197.32239458 64.84645404 198.09507602 64.84075677 198.89117205 C64.90349612 204.0291714 65.9948961 207.50982245 68.24951172 212.12939453 C68.57951172 213.11939453 68.90951172 214.10939453 69.24951172 215.12939453 C72.52803815 215.86047671 75.556056 216.25359366 78.91291809 216.24964905 C79.8201059 216.25102371 80.7272937 216.25239838 81.66197205 216.2538147 C82.64452469 216.25021942 83.62707733 216.24662415 84.6394043 216.24291992 C85.68376648 216.24306595 86.72812866 216.24321198 87.80413818 216.24336243 C91.25079435 216.24266662 94.69739626 216.23488971 98.14404297 216.22705078 C100.53586294 216.22518542 102.92768329 216.22376208 105.31950378 216.22276306 C111.61100318 216.21894717 117.90247946 216.20912477 124.19396973 216.19805908 C130.61547533 216.18782504 137.03698468 216.18326117 143.45849609 216.17822266 C156.05551116 216.16750169 168.65251021 216.15062893 181.24951172 216.12939453 C183.6392717 220.90891449 182.98747916 227.27386401 183.31201172 232.56689453 C183.35653473 233.27637238 183.40105774 233.98585022 183.44692993 234.71682739 C184.08201345 245.00425387 184.4363094 255.25754416 184.43701172 265.56689453 C184.43809937 267.29734009 184.43809937 267.29734009 184.43920898 269.06274414 C184.38514908 276.99375717 184.38514908 276.99375717 183.24951172 278.12939453 C181.46574503 278.23670071 179.67771162 278.27350151 177.89074707 278.28329468 C176.7275444 278.29189514 175.56434174 278.30049561 174.3658905 278.30935669 C173.07773941 278.31361664 171.78958832 278.31787659 170.46240234 278.32226562 C169.10069061 278.33016445 167.73898097 278.33843326 166.37727356 278.3470459 C161.88679011 278.37333282 157.39629713 278.38859891 152.90576172 278.40283203 C151.35681655 278.40819254 149.80787144 278.41357005 148.25892639 278.41896439 C141.80457111 278.4406196 135.35021835 278.45934672 128.89583588 278.47058678 C119.67304139 278.48675495 110.45067311 278.51972665 101.22803926 278.57698762 C94.73269059 278.61592171 88.23745464 278.63524805 81.74199247 278.64050734 C77.87079537 278.64413435 74.00005207 278.6558649 70.12898254 278.68861008 C32.47333284 278.99149699 32.47333284 278.99149699 16.24951172 268.12939453 C16.24951172 267.46939453 16.24951172 266.80939453 16.24951172 266.12939453 C15.16669922 265.82001953 15.16669922 265.82001953 14.06201172 265.50439453 C10.41466531 263.7212474 8.73057675 261.31024714 6.24951172 258.12939453 C5.29431641 257.241875 5.29431641 257.241875 4.31982422 256.33642578 C-9.08611208 242.0451918 -8.88434315 219.70179691 -8.95581055 201.44165039 C-8.96541102 199.87437698 -8.9754223 198.30710604 -8.98580933 196.73983765 C-9.01274225 192.49555578 -9.03384377 188.25126307 -9.05381131 184.00694346 C-9.07592253 179.50685331 -9.1032259 175.00679432 -9.12986755 170.50672913 C-9.17410849 162.91001838 -9.21484222 155.3132955 -9.25317383 147.71655273 C-9.30156526 138.12878495 -9.35541089 128.54105668 -9.41114235 118.95332909 C-9.63942828 79.67862521 -9.83748718 40.40490541 -9.75048828 1.12939453 C-6.30288195 -0.01980758 -3.6372056 0.00234526 0 0 Z " fill="#FEFEFE" transform="translate(208.75048828125,0.87060546875)"/>
</svg>
